<svg width="570" height="191" viewBox="0 0 570 191" fill="none" xmlns="http://www.w3.org/2000/svg">
<g clip-path="url(#clip0_707_191)">
<path d="M846.44 0.0407715C799.432 1.09106 753.916 22.2419 708.4 43.3928C661.71 65.0892 615.02 86.7856 566.72 86.7856C518.42 86.7856 471.73 65.0892 425.04 43.3928C378.35 21.6964 331.66 0 283.36 0C235.06 0 188.37 21.6964 141.68 43.3928C94.9902 65.0892 48.3003 86.7856 0.000244141 86.7856L0 190.888C47.0076 189.838 92.5236 168.687 138.04 147.536C184.73 125.839 231.42 104.143 279.72 104.143C328.02 104.143 374.71 125.839 421.4 147.536C468.09 169.232 514.78 190.929 563.08 190.929C611.38 190.929 658.07 169.232 704.76 147.536C751.45 125.839 798.14 104.143 846.44 104.143L846.44 0.0407715Z" fill="#FC6668" fill-opacity="0.05"/>
</g>
<defs>
<clipPath id="clip0_707_191">
<rect width="570" height="191" fill="white"/>
</clipPath>
</defs>
</svg>
